<?xml version="1.0" encoding="UTF-8"?>
<svg id="Layer_1" xmlns="http://www.w3.org/2000/svg" width="64" height="64" version="1.1" viewBox="0 0 64 64">
  <!-- Generator: Adobe Illustrator 29.8.2, SVG Export Plug-In . SVG Version: 2.1.1 Build 3)  -->
  <defs>
    <style>
      .st0 {
        fill: #16a2ae;
      }
    </style>
  </defs>
  <path class="st0" d="M45.6,43.3c0,0,0-.1,0-.2,0,0,0-.2,0-.2,0,0,0-.1,0-.2,0-.1-.2-.3-.3-.4,0,0,0,0,0,0,0,0-.2-.2-.3-.2,0,0,0,0,0,0,0,0,0,0-.1,0,0,0,0,0-.1,0l-11.5-5.3c-.6-.3-1.3-.3-1.8,0l-11.5,5.3s0,0-.1,0c0,0,0,0-.1,0,0,0,0,0,0,0-.1,0-.2.1-.3.2,0,0,0,0-.1,0,0,.1-.2.2-.3.4,0,0,0,.1,0,.2,0,0,0,.1,0,.2,0,0,0,0,0,.1,0,0,0,.1,0,.2,0,.1,0,.2,0,.3,0,0,0,0,0,.1v12.3c0,.8.5,1.6,1.3,2l11.5,5.3c0,0,.2,0,.3,0,0,0,0,0,.1,0,.2,0,.4,0,.6,0s0,0,0,0,0,0,0,0c.2,0,.4,0,.6,0,0,0,0,0,.1,0,0,0,.2,0,.3,0l11.5-5.3c.8-.4,1.3-1.1,1.3-2v-12.3s0,0,0-.1c0-.1,0-.2,0-.3ZM41.3,47.2v7.5l-7.1,3.3v-7.5l7.1-3.3ZM32,46.7l-6.3-2.9,6.3-2.9,6.3,2.9-6.3,2.9ZM29.8,50.5v7.5l-7.1-3.3v-7.5l7.1,3.3Z"/>
  <path class="st0" d="M61.6,7.3c1.3,0,2.4-1.1,2.4-2.4s-1.1-2.4-2.4-2.4h-12.9c-1.3,0-2.4,1.1-2.4,2.4s1.1,2.4,2.4,2.4h4v3.1c-1.3.4-2.4,1.2-3,2.4h-4.2c-1,0-1.9-.5-2.3-1.4-2.3-4-6.5-6.4-11.2-6.4s-8.8,2.4-11,6.4c-.5.8-1.4,1.4-2.3,1.4h-4c-.7-1.3-2-2.2-3.4-2.5v-3h4c1.3,0,2.4-1.1,2.4-2.4s-1.1-2.4-2.4-2.4H2.4c-1.3,0-2.4,1.1-2.4,2.4s1.1,2.4,2.4,2.4h4v3.1c-2.1.6-3.7,2.5-3.7,4.8v5.1c0,2.8,2.2,5,5,5h2.6c1.8,0,3.5-1,4.3-2.6h4c.9,0,1.8.5,2.3,1.3l-9,5.3c-2.7,1.6-4.1,4.7-3.6,7.8l2,11.9c.2,1.3,1.5,2.2,2.8,2,1.3-.2,2.2-1.5,2-2.8l-2-11.9c-.2-1.1.3-2.2,1.3-2.8l9.8-5.7c2.3,1.8,5.1,2.7,8,2.7s5.5-.9,7.7-2.7l9.7,5.7c1,.6,1.5,1.7,1.3,2.8l-2,11.9c-.1.6,0,1.3.4,1.8.4.5.9.9,1.6,1,.1,0,.3,0,.4,0,1.2,0,2.2-.9,2.4-2l2-11.9c.5-3.1-.9-6.2-3.6-7.8l-8.9-5.2s0,0,0,0c.5-.8,1.4-1.4,2.3-1.4h4.2c.9,1.6,2.5,2.6,4.3,2.6h2.6c2.8,0,5-2.2,5-5v-5.1c0-2.4-1.7-4.5-4-4.9v-3h4ZM53.9,15.2c0,0,0-.2.2-.2h2.6c0,0,.2,0,.2.2v5.1c0,0,0,.2-.2.2h-2.6c0,0-.2,0-.2-.2v-5.1ZM48.9,17.6v.3h-3.3c-2.7,0-5.2,1.4-6.5,3.8-1.4,2.5-4,3.9-7,3.9s-5.4-1.5-6.8-3.9c-1.3-2.3-3.8-3.8-6.5-3.8h-3.3v-.3h3.3c2.7,0,5.2-1.4,6.5-3.8,1.4-2.5,4-3.9,7-3.9s5.4,1.5,6.8,3.9c1.3,2.3,3.8,3.8,6.5,3.8h3.3ZM7.6,15.2c0,0,0-.2.2-.2h2.6c0,0,.2,0,.2.2v5.1c0,0,0,.2-.2.2h-2.6c0,0-.2,0-.2-.2v-5.1Z"/>
</svg>