<?xml version="1.0" encoding="UTF-8"?>
<svg id="Layer_1" xmlns="http://www.w3.org/2000/svg" width="64" height="64" version="1.1" viewBox="0 0 64 64">
  <!-- Generator: Adobe Illustrator 29.8.2, SVG Export Plug-In . SVG Version: 2.1.1 Build 3)  -->
  <defs>
    <style>
      .st0 {
        fill: #16a2ae;
      }
    </style>
  </defs>
  <g>
    <path class="st0" d="M46.7,32.6c-6.1,0-16.3,1.3-16.3,6.2v18c0,4.9,10.3,6.2,16.3,6.2s16.3-1.3,16.3-6.2v-18c0-4.9-10.3-6.2-16.3-6.2ZM46.7,35.9c8.2,0,12.5,2,12.9,2.8-.4.9-4.8,2.8-12.9,2.8s-12.4-2-12.9-2.8c.5-.9,4.8-2.8,12.9-2.8ZM59.6,56.7c-.3.8-4.7,2.9-13,2.9s-12.6-2.1-13-2.8v-5c3.5,1.7,9.1,2.2,13,2.2s9.4-.5,13-2.2v5ZM59.6,47.7c-.3.8-4.7,2.9-13,2.9s-12.6-2-13-2.9h0v-5c3.5,1.6,9.1,2.2,13,2.2s9.4-.6,13-2.2v5Z"/>
    <path class="st0" d="M46.7,64c-1.8,0-17.3-.2-17.3-7.2v-18c0-7,15.6-7.2,17.3-7.2s17.3.2,17.3,7.2v18c0,7-15.6,7.2-17.3,7.2ZM46.7,33.6c-6.2,0-15.3,1.4-15.3,5.2v18c0,3.8,9.2,5.2,15.3,5.2s15.3-1.4,15.3-5.2v-18c0-3.8-9.2-5.2-15.3-5.2ZM46.7,60.6c-8.1,0-13.3-2-13.9-3.4v-.2c0,0,0-6.8,0-6.8l1.4.7c3.3,1.6,8.6,2.1,12.5,2.1s9.3-.6,12.5-2.1l1.4-.7v6.9c-.7,1.7-6.2,3.5-14,3.5ZM34.7,56.4c.8.6,4.5,2.2,12,2.2s11.1-1.6,12-2.2v-3.1c-4.4,1.6-10.2,1.7-12,1.7s-7.5-.1-12-1.7v3.1ZM34.5,56.3h0ZM58.8,56.2h0,0ZM46.7,51.6c-7.6,0-13.1-1.8-13.9-3.4v-.2c0,0,0-6.8,0-6.8l1.4.7c3.4,1.6,8.7,2.1,12.5,2.1s9.2-.6,12.5-2.1l1.4-.7v6.9c-.8,1.7-6.3,3.5-14,3.5ZM34.7,47.4c.8.6,4.7,2.2,12,2.2s11.1-1.6,12-2.2v-3.1c-3.6,1.3-8.4,1.7-12,1.7s-8.4-.5-12-1.7v3.2ZM58.8,47.3h0ZM46.7,42.6c-8.1,0-12.9-1.9-13.8-3.3l-.3-.5.3-.5c.8-1.4,5.6-3.3,13.8-3.3s13.1,2,13.8,3.3l.2.5-.2.5c-.7,1.4-5.5,3.4-13.8,3.4ZM35.4,38.8c1.6.8,5.3,1.8,11.2,1.8s9.7-1.1,11.3-1.8c-1.5-.7-5.1-1.8-11.3-1.8s-9.6,1.1-11.2,1.8Z"/>
  </g>
  <g>
    <path class="st0" d="M41.9,10.7h2.7c1.1,0,1.9.9,1.9,1.9v8.9c0,.6.5,1.2,1.2,1.2s1.2-.5,1.2-1.2v-8.9c0-2.4-1.9-4.3-4.3-4.3h-2.7c-.6,0-1.2.5-1.2,1.2s.5,1.2,1.2,1.2Z"/>
    <path class="st0" d="M47.7,23.7c-1.2,0-2.2-1-2.2-2.2v-8.9c0-.5-.4-.9-.9-.9h-2.7c-1.2,0-2.2-1-2.2-2.2s1-2.2,2.2-2.2h2.7c2.9,0,5.3,2.4,5.3,5.3v8.9c0,1.2-1,2.2-2.2,2.2ZM41.9,9.3c0,0-.2,0-.2.2s0,.2.2.2h2.7c1.6,0,2.9,1.3,2.9,2.9v8.9c0,.2.3.2.3,0v-8.9c0-1.8-1.5-3.3-3.3-3.3h-2.7Z"/>
  </g>
  <g>
    <path class="st0" d="M22.5,53.4h-2.8c-1.1,0-2-.9-2-2v-9.2c0-.7-.5-1.2-1.2-1.2s-1.2.5-1.2,1.2v9.2c0,2.4,2,4.4,4.4,4.4h2.8c.7,0,1.2-.5,1.2-1.2s-.5-1.2-1.2-1.2Z"/>
    <path class="st0" d="M22.5,56.8h-2.8c-3,0-5.4-2.4-5.4-5.4v-9.2c0-1.2,1-2.2,2.2-2.2s2.2,1,2.2,2.2v9.2c0,.5.4,1,1,1h2.8c1.2,0,2.2,1,2.2,2.2s-1,2.2-2.2,2.2ZM16.6,42c-.1,0-.2,0-.2.2v9.2c0,1.9,1.5,3.4,3.4,3.4h2.8c.1,0,.2,0,.2-.2s0-.2-.2-.2h-2.8c-1.6,0-3-1.3-3-3v-9.2c0,0,0-.2-.2-.2Z"/>
  </g>
  <g>
    <path class="st0" d="M33.7,25.2V7.2c0-4.9-10.3-6.2-16.3-6.2S1,2.3,1,7.2v18c0,4.9,10.3,6.2,16.3,6.2s16.3-1.3,16.3-6.2ZM17.3,4.4c8.2,0,12.5,2,12.9,2.8-.4.9-4.8,2.8-12.9,2.8s-12.4-2-12.9-2.8c.5-.9,4.8-2.8,12.9-2.8ZM4.4,16.2v-5c3.5,1.6,9.1,2.2,13,2.2s9.4-.6,13-2.2v5c-.3.8-4.7,2.9-13,2.9s-12.6-2-13-2.9h0ZM4.4,25.2v-5c3.5,1.7,9.1,2.2,13,2.2s9.4-.5,13-2.2v5c-.3.8-4.7,2.9-13,2.9s-12.6-2.1-13-2.8Z"/>
    <path class="st0" d="M17.3,32.4c-1.8,0-17.3-.2-17.3-7.2V7.2C0,.2,15.6,0,17.3,0s17.3.2,17.3,7.2v18c0,7-15.6,7.2-17.3,7.2ZM17.3,2c-6.2,0-15.3,1.4-15.3,5.2v18c0,3.8,9.2,5.2,15.3,5.2s15.3-1.4,15.3-5.2V7.2c0-3.8-9.2-5.2-15.3-5.2ZM17.3,29.1c-8.1,0-13.3-2-13.9-3.4v-.2c0,0,0-6.8,0-6.8l1.4.7c3.3,1.6,8.6,2.1,12.5,2.1s9.3-.6,12.5-2.1l1.4-.7v6.9c-.7,1.7-6.2,3.5-14,3.5ZM5.4,24.8c.8.6,4.5,2.2,12,2.2s11.1-1.6,12-2.2v-3.1c-4.4,1.6-10.2,1.7-12,1.7s-7.5-.1-12-1.7v3.1ZM29.4,24.7h0ZM17.3,20.1c-7.6,0-13.1-1.8-13.9-3.4v-.2c0,0,0-6.8,0-6.8l1.4.7c3.4,1.6,8.7,2.1,12.5,2.1s9.2-.6,12.5-2.1l1.4-.7v6.9c-.8,1.7-6.3,3.5-14,3.5ZM5.4,15.9c.8.6,4.7,2.2,12,2.2s11.1-1.6,12-2.2v-3.1c-3.6,1.3-8.4,1.7-12,1.7s-8.4-.5-12-1.7v3.2ZM29.4,15.7h0s0,0,0,0ZM17.3,11c-8.1,0-12.9-1.9-13.8-3.3l-.3-.5.3-.5c.8-1.4,5.6-3.3,13.8-3.3s13.1,2,13.8,3.3l.2.5-.2.5c-.7,1.4-5.5,3.4-13.8,3.4ZM6.1,7.2c1.6.8,5.3,1.8,11.2,1.8s9.7-1.1,11.3-1.8c-1.5-.7-5.1-1.8-11.3-1.8s-9.6,1.1-11.2,1.8Z"/>
  </g>
</svg>