<?xml version="1.0" encoding="UTF-8"?>
<svg id="Layer_1" xmlns="http://www.w3.org/2000/svg" width="64" height="64" version="1.1" viewBox="0 0 64 64">
  <!-- Generator: Adobe Illustrator 29.8.2, SVG Export Plug-In . SVG Version: 2.1.1 Build 3)  -->
  <defs>
    <style>
      .st0 {
        fill: #16a2ae;
      }
    </style>
  </defs>
  <path class="st0" d="M52.2,24.9h.1c0-.1.2-.3.2-.3.2-.2.4-.4.7-.6.2-.2.4-.4.6-.6l1.7-1.6c.4-.4.6-1,.4-1.7-.1-.2-.2-.4-.3-.6-.5-.5-1.3-.6-2-.3-.1.1-.2.1-.3.2l-1.3,1.2c-4.1,3.7-8.2,7.3-12.3,11.1-.9.8-1.9,1.7-2.8,2.5-1.4,1.2-3.2,1.9-5,1.9s-3.4-.5-5-1.9c-.9-.8-1.9-1.7-2.8-2.5-4.1-3.7-8.2-7.3-12.3-11.1l-1.3-1.2c-.1-.1-.2-.1-.3-.2-.6-.4-1.4-.2-2,.3-.2.2-.3.4-.3.6-.2.5,0,1.2.4,1.7l1.7,1.6.6.6c.2.2.4.4.7.6l.2.2h.1c2,2,4,3.7,6,5.5.7.6,1.4,1.3,2.3,2.1-.1.1-.2.2-.3.3-3.2,3.2-6.4,6.3-9.6,9.5-.1.1-.3.3-.4.4-.4.5-.4,1.2-.1,1.8.4.5,1,.8,1.7.5.3-.1.6-.3.8-.6,3.2-3.1,6.4-6.3,9.6-9.4l.5-.5c.9.8,1.8,1.6,2.6,2.3,1.7,1.6,3.7,2.5,6,2.7.4,0,.8.1,1.2.1s.8,0,1.2-.1c2.3-.2,4.2-1.2,6-2.7.8-.7,1.7-1.6,2.6-2.3.2.2.4.3.5.5,3.2,3.1,6.4,6.3,9.6,9.4.2.2.5.5.8.6.6.2,1.2,0,1.7-.5s.3-1.2-.1-1.8l-.4-.4c-3.2-3.2-6.4-6.3-9.6-9.5l-.3-.3c.7-.7,1.4-1.3,2.3-2.1,2-1.8,4-3.5,6-5.4Z"/>
  <path class="st0" d="M54.5,55.6H9.4c-5.2,0-9.4-4.2-9.4-9.4v-28.3c0-5.2,4.2-9.4,9.4-9.4h45.2c5.2,0,9.4,4.2,9.4,9.4v28.3c-.1,5.2-4.2,9.4-9.5,9.4ZM9.4,11.9c-3.3,0-5.9,2.7-5.9,5.9v28.3c0,3.3,2.7,5.9,5.9,5.9h45.2c3.3,0,5.9-2.7,5.9-5.9v-28.3c0-3.3-2.7-5.9-5.9-5.9H9.4Z"/>
</svg>