<?xml version="1.0" encoding="UTF-8"?>
<svg id="Layer_1" xmlns="http://www.w3.org/2000/svg" width="64" height="64" version="1.1" viewBox="0 0 64 64">
  <!-- Generator: Adobe Illustrator 29.8.2, SVG Export Plug-In . SVG Version: 2.1.1 Build 3)  -->
  <defs>
    <style>
      .st0 {
        fill: #16a2ae;
      }
    </style>
  </defs>
  <path class="st0" d="M60.6,3.6c-2.1-2.1-4.9-3.3-8-3.3H11.5C5.3.2.2,5.3.2,11.5v41.1c0,6.2,5,11.2,11.2,11.2h41.1c6.2,0,11.2-5,11.2-11.2V11.5c0-3-1.1-5.8-3.2-7.9ZM57.7,53c-.2,2.6-2.4,4.7-5.1,4.7H11.5c-2.8,0-5.1-2.3-5.1-5.1V11.5c0-2.8,2.3-5.1,5.1-5.1h41.1c2.8,0,5.1,2.3,5.1,5.1v41.5h0Z"/>
  <path class="st0" d="M42.5,17.7c-1.2-1.1-2.6-2-4.3-2.5-1.6-.6-3.5-.9-5.7-.9h-14.6v35.4h8.4v-10.4h5.4c2,0,3.8-.3,5.6-.8,1.8-.5,3.3-1.3,4.6-2.4,1.3-1.1,2.4-2.4,3.1-3.9.8-1.6,1.1-3.4,1.1-5.5h0c0-1.9-.3-3.6-.9-5.1-.6-1.5-1.5-2.8-2.7-3.9ZM37.6,26.8h0c0,1.1-.2,1.9-.7,2.6-.4.7-1.1,1.3-1.9,1.7-.8.4-1.9.6-3.1.6h-5.7v-9.8h5.5c1.2,0,2.3.2,3.2.6.9.4,1.5.9,2,1.6.5.7.7,1.6.7,2.7Z"/>
</svg>