<?xml version="1.0" encoding="UTF-8"?>
<svg id="Layer_1" xmlns="http://www.w3.org/2000/svg" width="64" height="64" version="1.1" viewBox="0 0 64 64">
  <!-- Generator: Adobe Illustrator 29.8.2, SVG Export Plug-In . SVG Version: 2.1.1 Build 3)  -->
  <defs>
    <style>
      .st0 {
        fill: #16a2ae;
      }
    </style>
  </defs>
  <path class="st0" d="M50.6,39.8c-1.3-1.4-2.9-2.1-4.6-2.1s-3.3.7-4.6,2.1l-4.3,4.3c-.4-.2-.7-.4-1-.5-.5-.2-.9-.5-1.3-.7-4-2.5-7.6-5.8-11.1-10.1-1.7-2.1-2.8-3.9-3.6-5.8,1.1-1,2.1-2.1,3.1-3.1.4-.4.8-.8,1.1-1.1,2.8-2.8,2.8-6.5,0-9.3l-3.7-3.7c-.4-.4-.9-.9-1.3-1.3-.8-.8-1.7-1.7-2.5-2.5-1.3-1.3-2.9-2-4.5-2s-3.2.7-4.6,2h0s-4.6,4.7-4.6,4.7C1.3,12.2.3,14.3.1,16.8c-.3,3.9.8,7.6,1.7,10,2.2,5.9,5.5,11.4,10.3,17.2,5.9,7.1,13,12.6,21.2,16.6,3.1,1.5,7.3,3.2,11.9,3.5.3,0,.6,0,.9,0,3.1,0,5.7-1.1,7.8-3.3,0,0,0,0,0,0,.7-.9,1.5-1.6,2.4-2.4.6-.6,1.2-1.1,1.8-1.7,1.3-1.4,2-3,2-4.7s-.7-3.3-2.1-4.6l-7.4-7.4ZM55.4,54c-.5.6-1.1,1.1-1.6,1.6-.9.8-1.8,1.7-2.6,2.7-1.4,1.5-3,2.1-5.1,2.1s-.4,0-.6,0c-4-.3-7.7-1.8-10.5-3.2-7.6-3.7-14.4-9-19.9-15.6-4.6-5.6-7.7-10.7-9.7-16.2-1.3-3.4-1.7-6-1.5-8.5.1-1.6.7-2.9,1.9-4l4.6-4.6c.7-.6,1.4-1,2.1-1s1.5.5,2,.9c0,0,0,0,0,0,.8.8,1.6,1.6,2.4,2.4.4.4.9.9,1.3,1.3l3.7,3.7c1.4,1.4,1.4,2.8,0,4.2s-.8.8-1.2,1.2c-1.1,1.2-2.2,2.2-3.4,3.3,0,0,0,0,0,0-1.2,1.2-.9,2.3-.7,3.1,0,0,0,0,0,.1,1,2.3,2.3,4.5,4.4,7.1h0c3.7,4.6,7.7,8.2,12,10.9.6.4,1.1.6,1.7.9.5.2.9.5,1.3.7,0,0,.1,0,.2,0,.5.2.9.3,1.3.3,1.1,0,1.8-.7,2.1-.9l4.6-4.6c.5-.5,1.2-1,2-1s1.5.5,1.9,1t0,0l7.4,7.4c1.4,1.4,1.4,2.8,0,4.2Z"/>
  <path class="st0" d="M34.6,15.4c3.5.6,6.8,2.3,9.3,4.8s4.2,5.8,4.8,9.3c.1.9.9,1.5,1.8,1.5s.2,0,.3,0c1-.2,1.7-1.1,1.5-2.1-.7-4.3-2.8-8.2-5.8-11.3-3.1-3.1-7-5.1-11.3-5.8-1-.2-1.9.5-2.1,1.5-.2,1,.5,1.9,1.5,2.1Z"/>
  <path class="st0" d="M63.9,28.4c-1.2-7.1-4.5-13.5-9.6-18.6C49.2,4.7,42.8,1.4,35.7.2c-1-.2-1.9.5-2.1,1.5-.2,1,.5,1.9,1.5,2.1,6.3,1.1,12,4.1,16.6,8.6,4.6,4.6,7.5,10.3,8.6,16.6.1.9.9,1.5,1.8,1.5s.2,0,.3,0c1-.1,1.7-1.1,1.5-2.1Z"/>
</svg>