<?xml version="1.0" encoding="UTF-8"?>
<svg id="Layer_1" xmlns="http://www.w3.org/2000/svg" width="64" height="64" version="1.1" xmlns:xlink="http://www.w3.org/1999/xlink" viewBox="0 0 64 64">
  <!-- Generator: Adobe Illustrator 29.8.2, SVG Export Plug-In . SVG Version: 2.1.1 Build 3)  -->
  <defs>
    <style>
      .st0 {
        fill: #16a2ae;
      }

      .st1 {
        fill: none;
      }

      .st2 {
        clip-path: url(#clippath);
      }
    </style>
    <clipPath id="clippath">
      <rect class="st1" y="0" width="64" height="64"/>
    </clipPath>
  </defs>
  <g class="st2">
    <path class="st0" d="M29.2,62H11.4c-5.2,0-9.4-4.2-9.4-9.4V16.1c0-5.2,4.2-9.4,9.4-9.4h.7v-.7c0-2.2,1.8-4,4-4h8.4c2.2,0,4,1.8,4,4v.7h.7c5.2,0,9.4,4.2,9.4,9.4v24.3h8.2c3.2,0,5.9-2.6,5.9-5.9v-11.1c-2.7-1-4.7-3.6-4.7-6.6V7.6c.1-3.1,4.6-3.1,4.7,0v2.6h4.7v-2.6c.1-3.1,4.6-3.1,4.7,0v9.1c0,3.1-2,5.7-4.7,6.6v11.1c0,5.8-4.7,10.5-10.5,10.5h-10.5c-1.3,0-2.3-1-2.3-2.3v-26.6c0-2.6-2.1-4.7-4.7-4.7h-3c-1.3,0-2.3-1-2.3-2.3v-2.3h-7v2.3c0,1.3-1,2.3-2.3,2.3h-3c-2.6,0-4.7,2.1-4.7,4.7v36.6c0,2.6,2.1,4.7,4.7,4.7h17.8c2.6,0,4.7-2.1,4.7-4.7s1-2.3,2.3-2.3,2.3,1,2.3,2.3c0,5.2-4.2,9.4-9.4,9.4ZM52.6,14.9v1.9c.1,3.1,4.6,3.1,4.7,0v-1.9h-4.7ZM27.4,53.2h-14.3c-3.1-.1-3.1-4.6,0-4.7h14.3c3.1.1,3.1,4.6,0,4.7ZM27.4,45h-14.3c-3.1-.1-3.1-4.6,0-4.7h14.3c3.1.1,3.1,4.6,0,4.7ZM27.4,36.8h-14.3c-3.1-.1-3.1-4.6,0-4.7h14.3c3.1.1,3.1,4.6,0,4.7Z"/>
  </g>
</svg>