<?xml version="1.0" encoding="UTF-8"?>
<svg id="Layer_1" xmlns="http://www.w3.org/2000/svg" width="64" height="64" version="1.1" viewBox="0 0 64 64">
  <!-- Generator: Adobe Illustrator 29.8.2, SVG Export Plug-In . SVG Version: 2.1.1 Build 3)  -->
  <defs>
    <style>
      .st0 {
        fill: #16a2ae;
      }
    </style>
  </defs>
  <path class="st0" d="M29.1,16.8c-1-1-2.4-1.6-3.9-1.6s-2.2,1-2.2,2.2,1,2.2,2.2,2.2.6.1.8.3c.2.2.3.5.3.8s-.1.6-.3.8c-.2.2-.5.3-.8.3h-14.7c-1.2,0-2.2,1-2.2,2.2s1,2.2,2.2,2.2h14.7c1.4,0,2.9-.6,3.9-1.6,1-1,1.6-2.4,1.6-3.9s-.6-2.8-1.6-3.9Z"/>
  <path class="st0" d="M7.4,18.6h10.6c1.2,0,2.2-1,2.2-2.2s-1-2.2-2.2-2.2H7.4c-1.2,0-2.2,1-2.2,2.2s1,2.2,2.2,2.2Z"/>
  <path class="st0" d="M19,33.9c-1.2,0-2.2,1-2.2,2.2s.5,1.7,1.3,2h-9.7c-1.2,0-2.2,1-2.2,2.2s1,2.2,2.2,2.2h10.6c1.2,0,2.2-.4,3.1-1.3.8-.8,1.3-1.9,1.3-3.1s-.4-2.2-1.3-3.1c-.8-.8-1.9-1.3-3.1-1.3Z"/>
  <path class="st0" d="M25.7,28.2H4.6c-1.2,0-2.2,1-2.2,2.2s1,2.2,2.2,2.2h21.1c1.2,0,2.2-1,2.2-2.2s-1-2.2-2.2-2.2Z"/>
  <path class="st0" d="M55.2,35.3V9.5c0-2.5-1-4.9-2.8-6.7-1.8-1.8-4.2-2.8-6.7-2.8s-5,1-6.7,2.8c-1.8,1.8-2.8,4.2-2.8,6.7v25.8c-4,3-6.4,7.7-6.4,12.8,0,8.8,7.1,15.9,15.9,15.9s15.9-7.1,15.9-15.9-2.4-9.8-6.4-12.8ZM45.7,59.2c-6.1,0-11.1-5-11.1-11.1s2-7.4,5.3-9.4c.7-.4,1.1-1.2,1.1-2.1V9.5c0-1.2.5-2.4,1.4-3.3.9-.9,2.1-1.4,3.3-1.4s2.4.5,3.3,1.4c.6.6,1,1.3,1.2,2.1h-3.1c-1.3,0-2.4,1.1-2.4,2.4s1.1,2.4,2.4,2.4h3.3v2.2h-3.3c-1.3,0-2.4,1.1-2.4,2.4s1.1,2.4,2.4,2.4h3.3v2.2h-3.3c-1.3,0-2.4,1.1-2.4,2.4s1.1,2.4,2.4,2.4h3.3v2.2h-1.8c-1.3,0-2.4,1.1-2.4,2.4s1.1,2.4,2.4,2.4h1.8v2.2c0,.8.4,1.6,1.1,2.1,3.3,2,5.3,5.6,5.3,9.4,0,6.1-5,11.1-11.1,11.1Z"/>
  <path class="st0" d="M44.2,45.3c-.6.6-1.8,1.2-2.8.6-.9-.5-2-.5-2.9,0-.6.3-1,.8-1.2,1.4-.2.4-.3.7-.3,1.1,0,4.8,3.9,8.7,8.7,8.7s8.7-3.9,8.7-8.7,0-1.4-.3-2.1c0,0-.2-.6-.6-1-1.4-1.4-2.9-2.1-4.4-2.2-1.7,0-3.3.7-4.9,2.2ZM50.2,48.4c0,2.5-2,4.5-4.5,4.5s-3.3-1-4-2.6c2.3.3,4.3-.8,5.5-2,.5-.5,1.1-1,1.7-1,.4,0,.8.2,1.2.6,0,.2,0,.3,0,.5Z"/>
</svg>