<?xml version="1.0" encoding="iso-8859-1"?>
<!-- Generator: Adobe Illustrator 19.0.0, SVG Export Plug-In . SVG Version: 6.00 Build 0)  -->
<svg version="1.1" id="Capa_1" xmlns="http://www.w3.org/2000/svg" xmlns:xlink="http://www.w3.org/1999/xlink" x="0px" y="0px"
	 viewBox="0 0 512 512" style="enable-background:new 0 0 512 512;" xml:space="preserve">
<g>
	<g>
		<path d="M504.5,37H7.5C3.358,37,0,40.357,0,44.5v19.833c0,4.143,3.358,7.5,7.5,7.5s7.5-3.357,7.5-7.5V52h482v301h-16.667
			c-4.142,0-7.5,3.357-7.5,7.5s3.358,7.5,7.5,7.5H504.5c4.142,0,7.5-3.357,7.5-7.5v-316C512,40.357,508.642,37,504.5,37z"/>
	</g>
</g>
<g>
	<g>
		<path d="M474.5,67h-437c-4.142,0-7.5,3.357-7.5,7.5v256c0,4.143,3.358,7.5,7.5,7.5h437c4.142,0,7.5-3.357,7.5-7.5v-256
			C482,70.357,478.642,67,474.5,67z M467,323H45v-52.66h69.912C118.101,278.892,126.35,285,136,285c12.407,0,22.5-10.094,22.5-22.5
			c0-7.234-3.436-13.678-8.757-17.796L158.706,217H217c4.142,0,7.5-3.357,7.5-7.5V208H247c4.142,0,7.5-3.357,7.5-7.5v-60
			c0-4.143-3.358-7.5-7.5-7.5h-22.5v-1.5c0-4.143-3.358-7.5-7.5-7.5H83c-4.142,0-7.5,3.357-7.5,7.5v78c0,4.143,3.358,7.5,7.5,7.5
			h59.941l-7.445,23.013c-9.684,0.215-17.873,6.574-20.821,15.327H45V82h422V323z M128.5,262.5c0-4.136,3.364-7.5,7.5-7.5
			s7.5,3.364,7.5,7.5s-3.364,7.5-7.5,7.5S128.5,266.636,128.5,262.5z M90.5,202v-63h119v1.5v60v1.5h-56.154
			c-0.011,0-0.023,0-0.034,0H90.5z M224.5,193v-45h15v45H224.5z"/>
	</g>
</g>
<g>
	<g>
		<path d="M418,106H302c-4.142,0-7.5,3.357-7.5,7.5v46c0,4.143,3.358,7.5,7.5,7.5h116c4.142,0,7.5-3.357,7.5-7.5v-46
			C425.5,109.357,422.142,106,418,106z M410.5,152h-101v-31h101V152z"/>
	</g>
</g>
<g>
	<g>
		<path d="M418,174H302c-4.142,0-7.5,3.357-7.5,7.5v46c0,4.143,3.358,7.5,7.5,7.5h116c4.142,0,7.5-3.357,7.5-7.5v-46
			C425.5,177.357,422.142,174,418,174z M410.5,220h-101v-31h101V220z"/>
	</g>
</g>
<g>
	<g>
		<path d="M418,240H302c-4.142,0-7.5,3.357-7.5,7.5v46c0,4.143,3.358,7.5,7.5,7.5h116c4.142,0,7.5-3.357,7.5-7.5v-46
			C425.5,243.357,422.142,240,418,240z M410.5,286h-101v-31h101V286z"/>
	</g>
</g>
<g>
	<g>
		<path d="M504.5,390h-68c-4.142,0-7.5,3.357-7.5,7.5V426H264v-58h184.333c4.142,0,7.5-3.357,7.5-7.5s-3.358-7.5-7.5-7.5H15V96.333
			c0-4.143-3.358-7.5-7.5-7.5S0,92.19,0,96.333V360.5c0,4.143,3.358,7.5,7.5,7.5H249v58h-88.75c-4.142,0-7.5,3.357-7.5,7.5
			s3.358,7.5,7.5,7.5H429v26.5c0,4.143,3.358,7.5,7.5,7.5h68c4.142,0,7.5-3.357,7.5-7.5v-70C512,393.357,508.642,390,504.5,390z
			 M497,460h-53v-55h53V460z"/>
	</g>
</g>
<g>
	<g>
		<path d="M355.284,129h-33.887c-4.142,0-7.5,3.357-7.5,7.5s3.358,7.5,7.5,7.5h33.887c4.142,0,7.5-3.357,7.5-7.5
			S359.426,129,355.284,129z"/>
	</g>
</g>
<g>
	<g>
		<circle cx="375.34" cy="136.5" r="7.5"/>
	</g>
</g>
<g>
	<g>
		<path d="M355.284,197h-33.887c-4.142,0-7.5,3.357-7.5,7.5s3.358,7.5,7.5,7.5h33.887c4.142,0,7.5-3.357,7.5-7.5
			S359.426,197,355.284,197z"/>
	</g>
</g>
<g>
	<g>
		<circle cx="375.34" cy="204.5" r="7.5"/>
	</g>
</g>
<g>
	<g>
		<path d="M355.284,263h-33.887c-4.142,0-7.5,3.357-7.5,7.5s3.358,7.5,7.5,7.5h33.887c4.142,0,7.5-3.357,7.5-7.5
			S359.426,263,355.284,263z"/>
	</g>
</g>
<g>
	<g>
		<circle cx="375.34" cy="270.5" r="7.5"/>
	</g>
</g>
<g>
	<g>
		<path d="M128.5,426H83v-28.5c0-4.143-3.358-7.5-7.5-7.5h-68c-4.142,0-7.5,3.357-7.5,7.5v70c0,4.143,3.358,7.5,7.5,7.5h68
			c4.142,0,7.5-3.357,7.5-7.5V441h45.5c4.142,0,7.5-3.357,7.5-7.5S132.642,426,128.5,426z M68,460H15v-55h53V460z"/>
	</g>
</g>
<g>
	<g>
		<path d="M478.5,411.5h-15c-4.142,0-7.5,3.357-7.5,7.5s3.358,7.5,7.5,7.5h15c4.142,0,7.5-3.357,7.5-7.5S482.642,411.5,478.5,411.5z
			"/>
	</g>
</g>
<g>
	<g>
		<path d="M478.5,437.5h-15c-4.142,0-7.5,3.357-7.5,7.5s3.358,7.5,7.5,7.5h15c4.142,0,7.5-3.357,7.5-7.5S482.642,437.5,478.5,437.5z
			"/>
	</g>
</g>
<g>
	<g>
		<path d="M49.5,411.5h-15c-4.142,0-7.5,3.357-7.5,7.5s3.358,7.5,7.5,7.5h15c4.142,0,7.5-3.357,7.5-7.5S53.642,411.5,49.5,411.5z"/>
	</g>
</g>
<g>
	<g>
		<path d="M49.5,437.5h-15c-4.142,0-7.5,3.357-7.5,7.5s3.358,7.5,7.5,7.5h15c4.142,0,7.5-3.357,7.5-7.5S53.642,437.5,49.5,437.5z"/>
	</g>
</g>
<g>
</g>
<g>
</g>
<g>
</g>
<g>
</g>
<g>
</g>
<g>
</g>
<g>
</g>
<g>
</g>
<g>
</g>
<g>
</g>
<g>
</g>
<g>
</g>
<g>
</g>
<g>
</g>
<g>
</g>
</svg>
