<svg id="Layer_5" enable-background="new 0 0 64 64" height="512" viewBox="0 0 64 64" width="512" xmlns="http://www.w3.org/2000/svg"><g><path d="m57 33.586v-3.586c0-2.757-2.243-5-5-5h-40c-2.757 0-5 2.243-5 5v3.586l-2.761 2.761c-2.089 2.089-3.239 4.866-3.239 7.82 0 .606.051 1.218.15 1.818l1.556 9.332c.215 1.294.572 2.569 1.061 3.792l1.556 3.891h13.354l.801-2h25.045l.801 2h13.354l1.557-3.891c.488-1.223.846-2.498 1.061-3.792l1.556-9.332c.1-.601.15-1.212.15-1.818 0-2.954-1.15-5.731-3.239-7.82zm-48-3.586c0-1.654 1.346-3 3-3h40c1.654 0 3 1.346 3 3v20.146c0 .47-.384.854-.854.854-.325 0-.618-.181-.764-.473-.954-1.908-1.701-3.926-2.219-5.997l-.085-.339c1.24-1.448 1.922-3.267 1.922-5.191 0-4.411-3.589-8-8-8s-8 3.589-8 8c0 3.861 2.772 7.126 6.471 7.846l-.417 5.414c-.036.467-.054.936-.054 1.405 0 1.821.274 3.608.801 5.335h-23.602c.527-1.727.801-3.514.801-5.335 0-.469-.018-.938-.054-1.405l-.417-5.414c3.699-.72 6.471-3.985 6.471-7.846 0-4.411-3.589-8-8-8s-8 3.589-8 8c0 1.925.682 3.744 1.922 5.191l-.085.34c-.518 2.07-1.265 4.088-2.219 5.996-.145.292-.438.473-.764.473-.47 0-.854-.384-.854-.854zm35.197 10.829c-.706-.309-1.197-1.012-1.197-1.829 0-1.103.897-2 2-2s2 .897 2 2c0 .006-.001.011-.002.017-1.211.063-2.268.776-2.801 1.812zm.803-5.829c-2.206 0-4 1.794-4 4 0 1.779 1.164 3.278 2.782 3.795l-.157 2.041c-2.659-.626-4.625-3.019-4.625-5.836 0-3.309 2.691-6 6-6s6 2.691 6 6c0 .901-.204 1.77-.58 2.562l-.007-.029c-.214-.859-.754-1.56-1.461-2.008.023-.173.048-.347.048-.525 0-2.206-1.794-4-4-4zm-31.413 6.532-.008.031c-.375-.792-.579-1.661-.579-2.563 0-3.309 2.691-6 6-6s6 2.691 6 6c0 2.817-1.967 5.211-4.625 5.836l-.157-2.041c1.618-.517 2.782-2.016 2.782-3.795 0-2.206-1.794-4-4-4s-4 1.794-4 4c0 .178.025.351.048.525-.707.448-1.247 1.149-1.461 2.007zm3.415-2.515c-.001-.006-.002-.011-.002-.017 0-1.103.897-2 2-2s2 .897 2 2c0 .818-.491 1.52-1.198 1.829-.532-1.036-1.589-1.749-2.8-1.812zm.831 20.709-.51 1.274h-10.646l-1.053-2.633c-.436-1.09-.754-2.226-.945-3.378l-1.556-9.332c-.082-.492-.123-.993-.123-1.49 0-2.42.942-4.695 2.653-6.406l1.347-1.347v13.731c0 1.575 1.28 2.855 2.854 2.855 1.088 0 2.065-.604 2.553-1.578 1.02-2.039 1.816-4.194 2.369-6.405l.75-2.999c.151-.599.687-1.018 1.304-1.018.697 0 1.285.545 1.339 1.241l.783 10.173c.032.416.048.833.048 1.251 0 2.086-.393 4.125-1.167 6.061zm43.044-14.069-1.556 9.332c-.191 1.152-.51 2.288-.945 3.378l-1.053 2.633h-10.646l-.51-1.274c-.774-1.936-1.167-3.975-1.167-6.061 0-.418.016-.835.048-1.251l.783-10.174c.054-.695.642-1.24 1.339-1.24.617 0 1.153.419 1.304 1.019l.75 2.997c.553 2.212 1.35 4.367 2.369 6.406.487.974 1.465 1.578 2.553 1.578 1.574 0 2.854-1.28 2.854-2.854v-13.732l1.347 1.347c1.711 1.711 2.653 3.986 2.653 6.406 0 .497-.041.998-.123 1.49z"/><path d="m23 57h8v-8h-8zm2-6h4v4h-4z"/><path d="m33 57h8v-8h-8zm2-6h4v4h-4z"/><path d="m37 29h-10v6h10zm-2 4h-6v-2h6z"/><path d="m29 37h2v2h-2z"/><path d="m33 37h2v2h-2z"/><path d="m33 41h2v2h-2z"/><path d="m29 41h2v2h-2z"/><path d="m29 45h2v2h-2z"/><path d="m33 45h2v2h-2z"/><path d="m63 3v-2h-10v2h4v6h-1c-1.302 0-2.402.839-2.816 2h-8.566l-2-4h-21.236l-2 4h-8.566c-.414-1.161-1.514-2-2.816-2h-1v-6h4v-2h-10v2h4v6h-1c-1.654 0-3 1.346-3 3v4c0 1.654 1.346 3 3 3h4c1.302 0 2.402-.839 2.816-2h14.184v4c0 1.103.897 2 2 2h10c1.103 0 2-.897 2-2v-4h14.184c.414 1.161 1.514 2 2.816 2h4c1.654 0 3-1.346 3-3v-4c0-1.654-1.346-3-3-3h-1v-6zm-54 13c0 .552-.448 1-1 1h-4c-.552 0-1-.448-1-1v-4c0-.552.448-1 1-1h4c.552 0 1 .448 1 1zm18 1h2.78c-.48.532-.78 1.229-.78 2s.301 1.468.78 2h-2.78zm5 3c-.552 0-1-.448-1-1s.448-1 1-1 1 .448 1 1-.448 1-1 1zm5.002 1h-2.782c.48-.532.78-1.229.78-2s-.301-1.468-.78-2h2.78zm-.002-6h-10-16v-2h9.618l2-4h18.764l2 4h9.618v2zm24-3v4c0 .552-.448 1-1 1h-4c-.552 0-1-.448-1-1v-4c0-.552.448-1 1-1h4c.552 0 1 .448 1 1z"/><path d="m25 11h2v2h-2z"/><path d="m37 11h2v2h-2z"/><path d="m33 11h2v2h-2z"/><path d="m29 11h2v2h-2z"/></g></svg>