<?xml version="1.0" encoding="UTF-8"?>
<svg id="Layer_1" xmlns="http://www.w3.org/2000/svg" width="24" height="24" version="1.1" viewBox="0 0 24 24">
  <!-- Generator: Adobe Illustrator 30.0.0, SVG Export Plug-In . SVG Version: 2.1.1 Build 123)  -->
  <defs>
    <style>
      .st0 {
        fill: none;
        stroke: #00897b;
        stroke-linecap: round;
        stroke-linejoin: round;
        stroke-width: 1.7px;
      }
    </style>
  </defs>
  <path class="st0" d="M12,23c6.1,0,11-4.9,11-11S18.1,1,12,1,1,5.9,1,12s4.9,11,11,11Z"/>
  <path class="st0" d="M12,18.6c3.6,0,6.6-3,6.6-6.6s-3-6.6-6.6-6.6-6.6,3-6.6,6.6,3,6.6,6.6,6.6Z"/>
  <path class="st0" d="M12,14.2c1.2,0,2.2-1,2.2-2.2s-1-2.2-2.2-2.2-2.2,1-2.2,2.2,1,2.2,2.2,2.2Z"/>
</svg>