<?xml version="1.0" encoding="UTF-8"?>
<svg id="Layer_1" xmlns="http://www.w3.org/2000/svg" width="24" height="24" version="1.1" viewBox="0 0 24 24">
  <!-- Generator: Adobe Illustrator 30.0.0, SVG Export Plug-In . SVG Version: 2.1.1 Build 123)  -->
  <defs>
    <style>
      .st0 {
        fill: #00897b;
      }
    </style>
  </defs>
  <path class="st0" d="M.4,21.8l4.3,2.1c0,0,.2,0,.3,0h0c.1,0,.2,0,.3,0l4.2-2.1c.2-.1.4-.4.4-.6v-2.8h4.2v2.8c0,.3.2.5.4.6l4.2,2.1c.2.1.4,0,.6,0l4.3-2.1c.2-.1.4-.4.4-.6v-5.6c0-.3-.1-.5-.4-.6,0,0,0,0,0,0l-4.3-2.1c-.2,0-.4,0-.6,0l-1.2.6-2.1-3.8,1.1-.6c.2-.1.4-.4.4-.6V2.8c0-.3-.2-.5-.4-.6L12.3,0c-.2,0-.4,0-.6,0l-4.2,2.1c-.2.1-.4.4-.4.6v5.7c0,.3.2.5.4.6l1.1.6-2.1,3.8-1.2-.6c-.2,0-.4,0-.6,0L.4,14.9c-.2.1-.4.4-.4.6v5.6c0,.3.2.5.4.6ZM1.4,16.7l2.9,1.4v4.1l-2.9-1.4v-4.1ZM8.5,20.8l-2.8,1.4v-4.1l2.8-1.4v4.1ZM15.5,16.7l2.8,1.4v4.1l-2.8-1.4v-4.1ZM22.6,20.8l-2.9,1.4v-4.1l2.9-1.4v4.1ZM19,14.2l2.7,1.3-2.7,1.3-2.6-1.3,2.6-1.3ZM15.5,8l-2.8,1.4v-4.1l2.8-1.4v4.1ZM12,1.5l2.6,1.3-2.6,1.3-2.6-1.3,2.6-1.3ZM8.5,4l2.8,1.4v4.1l-2.8-1.4V4ZM9.8,10.3l1.8.9c0,0,.2,0,.3,0h0c.1,0,.2,0,.3,0l1.8-.9,2.1,3.8-1.7.9c-.2.1-.4.4-.4.6v1.4h-4.2v-1.4c0-.3-.2-.5-.4-.6l-1.7-.9,2.1-3.8ZM5,14.2l2.6,1.3-2.6,1.3-2.7-1.3,2.7-1.3Z"/>
</svg>