<?xml version="1.0" encoding="UTF-8"?>
<svg id="Layer_1" xmlns="http://www.w3.org/2000/svg" width="24" height="24" version="1.1" viewBox="0 0 24 24">
  <!-- Generator: Adobe Illustrator 30.0.0, SVG Export Plug-In . SVG Version: 2.1.1 Build 123)  -->
  <defs>
    <style>
      .st0 {
        fill: #00897b;
      }
    </style>
  </defs>
  <g>
    <g>
      <path class="st0" d="M13.5,24c-1,0-1.9-.4-2.6-1.1-.6-.6-.9-1.4-.9-2.2s.3-1.6.9-2.2c.5-.5,1.1-.8,1.8-.8s1.4.3,1.8.8c.3.3.3.7,0,1-.3.3-.7.3-1,0-.2-.2-.5-.4-.9-.4s-.6.1-.9.4c-.3.3-.5.7-.5,1.2s.2.9.5,1.2,1,.7,1.6.7,1.2-.2,1.6-.7.9-1.3.9-2.1-.3-1.6-.9-2.1c-.7-.7-1.7-1.2-2.8-1.2h-4.5c-.4,0-.7-.3-.7-.7s.3-.7.7-.7h4.5c1.4,0,2.8.6,3.8,1.6.8.8,1.3,1.9,1.3,3.1s-.5,2.3-1.3,3.1c-.7.7-1.6,1.1-2.6,1.1Z"/>
      <path class="st0" d="M5,16.5H.7c-.4,0-.7-.3-.7-.7s.3-.7.7-.7h4.3c.4,0,.7.3.7.7s-.3.7-.7.7Z"/>
    </g>
    <circle class="st0" cx="5" cy="21" r=".7"/>
    <circle class="st0" cx="19.8" cy="2.9" r=".7"/>
    <circle class="st0" cx="2.9" cy="6.2" r=".7"/>
  </g>
  <g>
    <path class="st0" d="M18.9,13.7H6c-.4,0-.7-.3-.7-.7s.3-.7.7-.7h13c1.1,0,2-.4,2.8-1.2.6-.6.9-1.3.9-2.1s-.3-1.6-.9-2.1c-.4-.4-1-.7-1.6-.7s-1.2.2-1.6.7c-.3.3-.5.7-.5,1.2s.2.9.5,1.2c.2.2.5.4.9.4s.6-.1.9-.4c.3-.3.7-.3,1,0,.3.3.3.7,0,1-.5.5-1.1.8-1.8.8s-1.4-.3-1.8-.8c-.6-.6-.9-1.4-.9-2.2s.3-1.6.9-2.2c.7-.7,1.6-1.1,2.6-1.1s1.9.4,2.6,1.1c.8.8,1.3,1.9,1.3,3.1s-.5,2.3-1.3,3.1c-1,1-2.4,1.6-3.8,1.6Z"/>
    <path class="st0" d="M3.1,13.7H.7c-.4,0-.7-.3-.7-.7s.3-.7.7-.7h2.4c.4,0,.7.3.7.7s-.3.7-.7.7Z"/>
    <path class="st0" d="M15.2,5.8l-1.6.4-.9-.5c0-.1,0-.3,0-.4s0-.3,0-.4l.9-.5,1.6.4c.4.1.8-.1.9-.5s-.1-.8-.5-.9l-1.2-.3.3-1.2c.1-.4-.1-.8-.5-.9-.4-.1-.8.1-.9.5l-.4,1.6-.9.5c-.2-.2-.4-.3-.7-.4v-1l1.2-1.2c.3-.3.3-.7,0-1s-.7-.3-1,0l-.9.9-.9-.9c-.3-.3-.7-.3-1,0s-.3.7,0,1l1.2,1.2v1c-.2,0-.5.2-.7.4l-.9-.5-.4-1.6c-.1-.4-.5-.6-.9-.5s-.6.5-.5.9l.3,1.2-1.2.3c-.4.1-.6.5-.5.9s.5.6.9.5l1.6-.4.9.5c0,.1,0,.3,0,.4s0,.3,0,.4l-.9.5-1.6-.4c-.4-.1-.8.1-.9.5-.1.4.1.8.5.9l1.2.3-.3,1.2c-.1.4.1.8.5.9s.8-.1.9-.5l.4-1.6.9-.5c.2.2.4.3.7.4v1l-1.2,1.2c-.3.3-.3.7,0,1s.7.3,1,0l.9-.9.9.9c.3.3.7.3,1,0s.3-.7,0-1l-1.2-1.2v-1c.2,0,.5-.2.7-.4l.9.5.4,1.6c.1.4.5.6.9.5.4-.1.6-.5.5-.9l-.3-1.2,1.2-.3c.4-.1.6-.5.5-.9-.1-.4-.5-.6-.9-.5h0ZM10.6,4.7c.4,0,.7.3.7.7s-.3.7-.7.7-.7-.3-.7-.7.3-.7.7-.7Z"/>
  </g>
</svg>