<?xml version="1.0" encoding="UTF-8"?>
<svg id="Layer_1" xmlns="http://www.w3.org/2000/svg" width="24" height="24" version="1.1" viewBox="0 0 24 24">
  <!-- Generator: Adobe Illustrator 30.0.0, SVG Export Plug-In . SVG Version: 2.1.1 Build 123)  -->
  <defs>
    <style>
      .st0 {
        fill: #00897b;
        stroke: #00897b;
        stroke-miterlimit: 10;
        stroke-width: .5px;
      }
    </style>
  </defs>
  <g id="Page-1">
    <g id="_x30_11---Route-Hub-Planning">
      <path id="Shape" class="st0" d="M12.6,12.9c.2,0,.3,0,.4-.2.5-.4,4.4-3.8,4.4-7.2,0-2.7-2.2-4.9-4.9-4.9s-4.9,2.2-4.9,4.9,4,6.8,4.4,7.2c.1.1.3.2.4.2h0ZM8.4,5.6c0-2.3,1.9-4.2,4.2-4.2s4.2,1.9,4.2,4.2-2.6,5.3-4.2,6.6c-1.6-1.3-4.2-4.2-4.2-6.6h0Z"/>
      <path id="Shape1" data-name="Shape" class="st0" d="M15.2,5.6c0-1.4-1.2-2.6-2.6-2.6s-2.6,1.2-2.6,2.6,1.2,2.6,2.6,2.6c1.4,0,2.6-1.2,2.6-2.6ZM12.6,7.6c-1.1,0-2-.9-2-2s.9-2,2-2,2,.9,2,2c0,1.1-.9,2-2,2Z"/>
      <path id="Shape2" data-name="Shape" class="st0" d="M20.4,8.9c-1.1,0-2.1.5-2.7,1.4s-.8,2-.4,3l-1.3.7c-.1-.4-.3-.7-.5-1.1,0-.1-.2-.2-.3-.2-.1,0-.3,0-.3.2s0,.3,0,.4c1,1.6.9,3.8-.2,5.3s-3.2,2.2-5,1.7-3.2-2.2-3.3-4.1.9-3.8,2.7-4.6c.1,0,.2-.2.2-.3s0-.3-.2-.4c-.1,0-.3,0-.4,0-.5.2-.9.5-1.3.9l-2-2.9c1.1-1,1.3-2.8.4-4s-2.7-1.5-3.9-.6S0,6.9.7,8.2s2.4,1.8,3.8,1.1l2.1,3c-.8,1-1.3,2.2-1.3,3.5,0,.8.2,1.7.6,2.4l-1.2.8c-.9-1-2.4-1.1-3.4-.3-1,.8-1.3,2.3-.6,3.4.7,1.1,2.2,1.5,3.3.8s1.6-2.1,1.1-3.3l1.2-.7c.9,1.4,2.5,2.3,4.2,2.4,1.7.1,3.3-.6,4.4-1.8l1.9,1c-.3,1.1.2,2.2,1.2,2.6,1,.4,2.2,0,2.7-1s.2-2.2-.7-2.8c-.9-.6-2.2-.4-2.9.5l-1.7-1c.8-1.2,1.1-2.6.8-4l1.4-.8c.9,1.3,2.6,1.8,4,1.2s2.3-2.2,2-3.7c-.3-1.5-1.7-2.7-3.2-2.7h0ZM1.1,6.7c0-1.2,1-2.1,2.1-2.1s2.1,1,2.1,2.1-1,2.1-2.1,2.1c-1.2,0-2.1-1-2.1-2.1ZM2.9,22.5c-1,0-1.8-.8-1.8-1.8s.8-1.8,1.8-1.8,1.8.8,1.8,1.8c0,1-.8,1.7-1.8,1.8ZM18.8,19.8c.8,0,1.4.6,1.4,1.4s-.6,1.4-1.4,1.4-1.4-.6-1.4-1.4.6-1.4,1.4-1.4ZM20.4,14.7c-1.4,0-2.5-1.1-2.5-2.5s1.1-2.5,2.5-2.5,2.5,1.1,2.5,2.5c0,1.4-1.1,2.5-2.5,2.5Z"/>
    </g>
  </g>
</svg>