<?xml version="1.0" encoding="UTF-8"?>
<svg id="Layer_1" xmlns="http://www.w3.org/2000/svg" width="24" height="24" version="1.1" viewBox="0 0 24 24">
  <!-- Generator: Adobe Illustrator 30.0.0, SVG Export Plug-In . SVG Version: 2.1.1 Build 123)  -->
  <defs>
    <style>
      .st0 {
        fill: #00897b;
      }
    </style>
  </defs>
  <path class="st0" d="M13.4,9.2h-2.1v5.6h1.4v-1.4h.7c1.2,0,2.1-.9,2.1-2.1s-.9-2.1-2.1-2.1h0ZM13.4,12h-.7v-1.4h.7c.4,0,.7.3.7.7s-.3.7-.7.7Z"/>
  <path class="st0" d="M8,9.2c-1.2,0-2.1.9-2.1,2.1v3.5h1.4v-1.4h1.4v1.4h1.4v-3.5c0-1.2-.9-2.1-2.1-2.1h0ZM7.3,12v-.7c0-.4.3-.7.7-.7s.7.3.7.7v.7h-1.4Z"/>
  <path class="st0" d="M16.4,9.2h1.4v5.6h-1.4v-5.6Z"/>
  <path class="st0" d="M17.1,4.4l.9-1.6h1.8c.3.8,1.1,1.4,2,1.4s2.1-.9,2.1-2.1S23.1,0,21.9,0s-1.7.6-2,1.4h-2.6l-1.3,2.3c-.6-.3-1.2-.5-1.8-.6V0h-1.4v2.9c-.2,0-.5,0-.7,0s-.5,0-.7,0V0h-1.4v3.1c-.6.1-1.2.4-1.8.6l-1.3-2.3h-2.6C3.8.6,3,0,2.1,0S0,.9,0,2.1s.9,2.1,2.1,2.1,1.7-.6,2-1.4h1.8l.9,1.6c-1,.7-1.9,1.6-2.6,2.7H0v1.4h3.5c-.4.9-.6,1.8-.7,2.8H0v1.4h2.9c0,1,.3,1.9.7,2.8H0v1.4h4.3c.7,1,1.6,2,2.6,2.7l-.9,1.6h-1.8c-.3-.8-1.1-1.4-2-1.4S0,20.7,0,21.9s.9,2.1,2.1,2.1,1.7-.6,2-1.4h2.6l1.3-2.3c.6.3,1.2.5,1.8.6v3.1h1.4v-2.9c.2,0,.5,0,.7,0s.5,0,.7,0v2.9h1.4v-3.1c.6-.1,1.2-.4,1.8-.6l1.3,2.3h2.6c.3.8,1.1,1.4,2,1.4s2.1-.9,2.1-2.1-.9-2.1-2.1-2.1-1.7.6-2,1.4h-1.8l-.9-1.6c1-.7,1.9-1.6,2.6-2.7h4.3v-1.4h-3.5c.4-.9.6-1.8.7-2.8h2.9v-1.4h-2.9c0-1-.3-1.9-.7-2.8h3.5v-1.4h-4.3c-.7-1-1.6-2-2.6-2.7ZM21.9,1.4c.4,0,.7.3.7.7s-.3.7-.7.7-.7-.3-.7-.7.3-.7.7-.7ZM2.1,2.8c-.4,0-.7-.3-.7-.7s.3-.7.7-.7.7.3.7.7-.3.7-.7.7ZM2.1,22.6c-.4,0-.7-.3-.7-.7s.3-.7.7-.7.7.3.7.7-.3.7-.7.7ZM21.9,21.2c.4,0,.7.3.7.7s-.3.7-.7.7-.7-.3-.7-.7.3-.7.7-.7ZM12,19.8c-4.3,0-7.8-3.5-7.8-7.8s3.5-7.8,7.8-7.8,7.8,3.5,7.8,7.8-3.5,7.8-7.8,7.8Z"/>
</svg>